<svg width="171" height="192" viewBox="0 0 171 192" fill="none" xmlns="http://www.w3.org/2000/svg">
<g clip-path="url(#clip0_105_12)">
<g clip-path="url(#clip1_105_12)">
<g clip-path="url(#clip2_105_12)">
<path d="M170.222 75.4438L159.606 64.837V49.8365L130.981 21.2364H115.968L105.352 10.6296H64.8706L54.2546 21.2364H39.241L10.616 49.8365V64.837L0 75.4438V115.892L10.616 126.499V141.499L39.2431 170.097H54.2567L64.8728 180.704H105.356L115.972 170.097H130.985L159.61 141.497V126.496L170.222 115.89V75.4438ZM129.993 23.6175L157.223 50.8235V62.456L118.351 23.6175H129.993ZM157.223 65.8235V125.512L114.982 167.716H55.2419L12.9991 125.51V65.8235L55.2419 23.6175H114.982L157.223 65.8235ZM65.8584 13.0107H104.366L112.599 21.2364H57.625L65.8584 13.0107ZM12.9991 50.8235L40.2288 23.6175H51.8715L12.9991 62.456V50.8235ZM2.38524 114.905V76.4286L10.6181 68.2024V123.127L2.38524 114.905ZM40.2288 167.716L12.9991 140.51V128.877L51.8715 167.716H40.2288ZM104.366 178.323H65.8584L57.625 170.097H112.597L104.366 178.323ZM157.223 140.51L129.993 167.716H118.351L157.223 128.877V140.51ZM167.839 114.905L159.606 123.131V68.2045L167.839 76.4308V114.905Z" fill="white"/>
<g clip-path="url(#clip3_105_12)">
<g clip-path="url(#clip4_105_12)">
<g clip-path="url(#clip5_105_12)">
<g clip-path="url(#clip6_105_12)">
<g clip-path="url(#clip7_105_12)">
<g clip-path="url(#clip8_105_12)">
<path d="M85.1111 123.835C100.682 123.835 113.304 111.224 113.304 95.6667C113.304 80.1096 100.682 67.4981 85.1111 67.4981C69.5405 67.4981 56.918 80.1096 56.918 95.6667C56.918 111.224 69.5405 123.835 85.1111 123.835Z" fill="white"/>
<g clip-path="url(#clip9_105_12)">
<path d="M85.1111 82.4532L65.3636 95.6812L65.3654 98.4461L85.1111 85.0706L104.859 98.4461V95.6763L85.1111 82.4532Z" fill="#E8772E"/>
<path d="M66.3793 98.2849L66.2823 98.3501V108.88H77.6752V98.8346H92.5095V108.88H103.911V98.3505L85.0965 85.6441L66.3793 98.2849ZM103.47 108.44H92.9503V98.3941H77.2344V108.44H66.7231V98.5844L85.0965 86.1757L103.47 98.5844V108.44Z" fill="#E8772E"/>
<path d="M92.0122 99.2891H78.1729V100.193H92.0122V99.2891Z" fill="#E8772E"/>
<path d="M92.0122 100.698H78.1729V101.603H92.0122V100.698Z" fill="#E8772E"/>
<path d="M92.0122 102.108H78.1729V103.013H92.0122V102.108Z" fill="#E8772E"/>
<path d="M92.0122 103.552H78.1729V104.457H92.0122V103.552Z" fill="#E8772E"/>
<path d="M92.0122 104.962H78.1729V105.866H92.0122V104.962Z" fill="#E8772E"/>
<path d="M92.0122 106.372H78.1729V107.277H92.0122V106.372Z" fill="#E8772E"/>
<path d="M92.0122 107.781H78.1729V108.686H92.0122V107.781Z" fill="#E8772E"/>
</g>
</g>
<path d="M41.3852 114.224C41.0677 113.375 40.9804 112.568 41.124 111.802C41.2655 111.041 41.6171 110.358 42.1789 109.753C42.7406 109.148 43.5109 108.662 44.4896 108.297C45.4525 107.937 46.3499 107.808 47.1829 107.907C48.0138 108.011 48.7425 108.323 49.3702 108.842C49.999 109.365 50.474 110.055 50.7958 110.915C51.148 111.857 51.2576 112.684 51.1246 113.397C50.9948 114.108 50.6294 114.774 50.0277 115.394L48.875 114.276C49.3123 113.913 49.5825 113.486 49.6851 112.996C49.7883 112.506 49.7336 111.976 49.5213 111.408C49.3085 110.839 48.991 110.392 48.5681 110.068C48.1441 109.741 47.6329 109.553 47.0339 109.505C46.4355 109.458 45.7791 109.567 45.0647 109.834C44.3434 110.103 43.7678 110.439 43.3375 110.84C42.9092 111.237 42.6406 111.699 42.5321 112.225C42.4268 112.751 42.4906 113.324 42.7231 113.945C42.8491 114.282 43.0103 114.582 43.2061 114.844C43.404 115.102 43.629 115.31 43.8806 115.468C44.1311 115.623 44.4104 115.715 44.7184 115.743C45.0253 115.768 45.3578 115.713 45.7152 115.58L45.9732 115.483L44.9886 112.851L46.1844 112.405L47.6563 116.341L42.9869 118.084L42.5773 116.989L44.3721 116.223L44.3349 116.547C43.6779 116.544 43.0933 116.348 42.5826 115.959C42.0725 115.573 41.6735 114.994 41.3852 114.224ZM64.4471 127.421C65.2179 127.957 65.768 128.586 66.0972 129.305C66.4313 130.024 66.5371 130.794 66.4159 131.617C66.2962 132.436 65.9398 133.272 65.3461 134.123C64.7546 134.971 64.095 135.594 63.3662 135.99C62.6359 136.389 61.8757 136.556 61.0858 136.492C60.2964 136.433 59.5165 136.135 58.7458 135.598C57.9835 135.068 57.4366 134.442 57.1047 133.721C56.7706 133.002 56.6648 132.231 56.7861 131.409C56.9058 130.59 57.2611 129.755 57.8526 128.907C58.4463 128.056 59.1069 127.432 59.8352 127.036C60.5655 126.637 61.3257 126.47 62.1162 126.533C62.9082 126.595 63.6854 126.891 64.4471 127.421ZM63.6662 128.541C63.1678 128.194 62.6598 128.013 62.1417 127.997C61.6236 127.98 61.1134 128.126 60.6102 128.434C60.1123 128.741 59.6421 129.211 59.2 129.845C58.766 130.468 58.4894 131.068 58.3697 131.647C58.2532 132.228 58.292 132.758 58.4867 133.238C58.6814 133.718 59.0282 134.131 59.5267 134.478C60.0309 134.829 60.5421 135.013 61.0597 135.029C61.5805 135.048 62.0922 134.901 62.5944 134.588C63.0965 134.275 63.5646 133.807 63.9987 133.185C64.4408 132.551 64.7195 131.947 64.8349 131.374C64.9525 130.798 64.9126 130.269 64.7147 129.788C64.52 129.308 64.17 128.893 63.6662 128.541ZM83.095 133.683L82.8593 142L88.1969 142.151L88.1586 143.5L81.2534 143.304L81.5279 133.639L83.095 133.683ZM112.465 134.412L106.246 138.066L101.341 129.73L107.382 126.181L108.067 127.345L103.377 130.099L104.789 132.499L108.456 130.345L109.125 131.481L105.458 133.635L106.913 136.108L111.781 133.248L112.465 134.412ZM119.47 108.815L120.443 106.745L129.203 110.856L128.586 112.168L123.519 109.79L121.151 108.551L121.144 108.566L127.377 114.741L126.821 115.924L118.085 115.076L118.078 115.09L120.544 116.119L125.612 118.497L124.995 119.809L116.235 115.699L117.226 113.591L123.125 114.202L125.496 114.572L125.508 114.548L123.717 112.941L119.47 108.815Z" fill="white"/>
<path d="M48.4425 81.9305C48.1308 82.7671 47.6755 83.4245 47.0754 83.9018C46.4802 84.3769 45.778 84.6597 44.9679 84.7505C44.1582 84.8409 43.2699 84.7064 42.3034 84.3472C41.357 83.9958 40.6059 83.5133 40.05 82.8999C39.4979 82.2882 39.1569 81.5856 39.0266 80.7921C38.8952 80.0012 38.9877 79.1812 39.3037 78.3313C39.65 77.4018 40.1 76.7145 40.6538 76.2692C41.2107 75.8248 41.9145 75.565 42.764 75.4895L42.9007 77.0648C42.3406 77.052 41.8629 77.1966 41.4682 77.498C41.0735 77.7993 40.7719 78.2293 40.5639 78.7884C40.3559 79.347 40.3043 79.8848 40.4096 80.402C40.5192 80.9175 40.7799 81.3852 41.1927 81.8056C41.6049 82.226 42.1635 82.5672 42.8688 82.8292C43.58 83.0939 44.2263 83.2156 44.8072 83.1944C45.3833 83.1747 45.8801 83.0036 46.2977 82.681C46.7158 82.3584 47.0387 81.8906 47.2664 81.2789C47.3909 80.9451 47.4637 80.6167 47.4861 80.2935C47.5106 79.9752 47.4786 79.677 47.3898 79.3991C47.3052 79.1195 47.1568 78.8702 46.9446 78.6523C46.7307 78.4371 46.4483 78.2644 46.0972 78.1341L45.8392 78.0379L44.8732 80.6326L43.6965 80.1952L45.1407 76.3159L49.7431 78.0262L49.3404 79.1078L47.509 78.5173L47.7478 78.301C48.2335 78.7267 48.5425 79.2481 48.6745 79.8652C48.8016 80.4849 48.7245 81.1731 48.4425 81.9305ZM57.4154 56.0176C58.1713 55.4909 58.9389 55.1965 59.7187 55.1353C60.4959 55.0705 61.2454 55.2342 61.9667 55.6264C62.6837 56.0176 63.3338 56.6309 63.9179 57.4675C64.5019 58.3035 64.8535 59.1252 64.9738 59.932C65.0929 60.7441 64.9881 61.5035 64.6588 62.2104C64.3322 62.9199 63.7907 63.5381 63.0348 64.0653C62.2816 64.5899 61.5172 64.8822 60.7405 64.9417C59.9628 65.006 59.2133 64.8423 58.492 64.4506C57.7723 64.0616 57.1207 63.4488 56.5366 62.6128C55.953 61.7762 55.6025 60.9535 55.4849 60.1446C55.3663 59.333 55.4711 58.5735 55.7998 57.8666C56.1238 57.1592 56.6621 56.5427 57.4154 56.0176ZM58.1824 57.1162C57.6898 57.459 57.3483 57.8672 57.1574 58.3402C56.9685 58.8158 56.9302 59.3372 57.0419 59.9049C57.1568 60.4698 57.4319 61.064 57.8659 61.6858C58.2968 62.3024 58.7585 62.7632 59.2516 63.0688C59.7479 63.3728 60.2522 63.5184 60.7645 63.5051C61.2746 63.4897 61.7757 63.3101 62.2678 62.9672C62.763 62.6218 63.1077 62.2115 63.3013 61.7369C63.4902 61.2612 63.5274 60.7382 63.4136 60.1679C63.2965 59.5998 63.0231 59.0072 62.5928 58.3912C62.1582 57.7688 61.6954 57.3064 61.2039 57.0035C60.7097 56.7027 60.2065 56.5586 59.6947 56.5714C59.1814 56.5895 58.6777 56.7707 58.1824 57.1162ZM82.7859 47.8333L83.0147 56.0282L88.2729 55.8815L88.3096 57.2097L81.5055 57.3994L81.2396 47.8764L82.7859 47.8333ZM108.773 65.3015L102.652 61.6901L107.5 53.4867L113.448 56.9961L112.772 58.1398L108.156 55.4165L106.761 57.7773L110.368 59.9059L109.706 61.0268L106.098 58.8982L104.659 61.3319L109.449 64.1578L108.773 65.3015ZM130.302 79.6228L131.253 81.6616L122.612 85.6881L122.007 84.3929L127.01 82.0618L129.44 81.0578L129.434 81.0435L120.823 81.8556L120.279 80.69L126.436 74.621L126.429 74.6067L124.097 75.8217L119.095 78.1522L118.49 76.8575L127.131 72.831L128.103 74.9128L123.914 78.9845L122.139 80.5417L122.152 80.5704L124.494 80.2271L130.302 79.6228Z" fill="white"/>
<path d="M40.5676 96.7211C40.5676 96.1094 41.0639 95.613 41.6767 95.613C42.289 95.613 42.7858 96.1088 42.7858 96.7211C42.7858 97.3328 42.2895 97.8293 41.6767 97.8287C41.0645 97.8287 40.5676 97.3328 40.5676 96.7211ZM126.384 96.7211C126.384 96.1094 126.88 95.613 127.493 95.613C128.105 95.613 128.602 96.1088 128.602 96.7211C128.602 97.3328 128.105 97.8293 127.493 97.8287C126.88 97.8287 126.384 97.3328 126.384 96.7211Z" fill="white"/>
</g>
</g>
</g>
</g>
</g>
</g>
</g>
</g>
<defs>
<clipPath id="clip0_105_12">
<rect width="170.222" height="191.333" fill="white"/>
</clipPath>
<clipPath id="clip1_105_12">
<rect width="170.222" height="191.333" fill="white"/>
</clipPath>
<clipPath id="clip2_105_12">
<rect width="170.222" height="191.333" fill="white"/>
</clipPath>
<clipPath id="clip3_105_12">
<rect width="95.75" height="95.6667" fill="white" transform="translate(37.2361 47.8333)"/>
</clipPath>
<clipPath id="clip4_105_12">
<rect width="95.75" height="95.6667" fill="white" transform="translate(37.2361 47.8333)"/>
</clipPath>
<clipPath id="clip5_105_12">
<rect width="95.75" height="95.6667" fill="white" transform="translate(37.2361 47.8333)"/>
</clipPath>
<clipPath id="clip6_105_12">
<rect width="95.75" height="95.6667" fill="white" transform="translate(37.2361 47.8333)"/>
</clipPath>
<clipPath id="clip7_105_12">
<rect width="95.75" height="95.6667" fill="white" transform="translate(37.2361 47.8333)"/>
</clipPath>
<clipPath id="clip8_105_12">
<rect width="56.4212" height="56.3721" fill="white" transform="translate(56.9005 67.4806)"/>
</clipPath>
<clipPath id="clip9_105_12">
<rect width="39.4949" height="39.4605" fill="white" transform="translate(65.3636 75.9364)"/>
</clipPath>
</defs>
</svg>
