<svg xmlns="http://www.w3.org/2000/svg" version="1.1" xmlns:xlink="http://www.w3.org/1999/xlink" xmlns:svgjs="http://svgjs.dev/svgjs" width="2000" height="1500" viewBox="0 0 2000 1500"><rect width="2000" height="1500" fill="#e8772e"></rect><g transform="matrix(0.4444444444444444,0,0,0.4444444444444444,555.5555555555557,250)"><svg viewBox="0 0 320 360" data-background-color="#e8772e" preserveAspectRatio="xMidYMid meet" height="2250" width="2000" xmlns="http://www.w3.org/2000/svg" xmlns:xlink="http://www.w3.org/1999/xlink"><g id="tight-bounds" transform="matrix(1,0,0,1,0,0)"><svg viewBox="0 0 320 360" height="360" width="320"><g><svg></svg></g><g><svg viewBox="0 0 320 360" height="360" width="320"><g><path xmlns="http://www.w3.org/2000/svg" d="M320 141.95l-19.957-19.957v-28.224l-53.812-53.812h-28.223l-19.958-19.957h-76.1l-19.957 19.957h-28.224l-53.812 53.812v28.224l-19.957 19.957v76.104l19.957 19.958v28.223l53.816 53.808h28.224l19.957 19.957h76.104l19.958-19.957h28.223l53.812-53.812v-28.224l19.949-19.957zM244.374 44.437l51.189 51.189v21.887l-73.076-73.076zM295.563 123.849v112.306l-79.408 79.408h-112.306l-79.412-79.412v-112.302l79.412-79.412h112.306zM123.807 24.48h72.39l15.478 15.477h-103.346zM24.437 95.626l51.189-51.189h21.887l-73.076 73.076zM4.484 216.197v-72.394l15.477-15.478v103.342zM75.626 315.563l-51.189-51.189v-21.887l73.076 73.076zM196.197 335.52h-72.39l-15.478-15.477h103.342zM295.563 264.374l-51.189 51.189h-21.887l73.076-73.076zM315.52 216.197l-15.477 15.478v-103.346l15.477 15.478z" fill="#ffffff" fill-rule="nonzero" stroke="none" stroke-width="1" stroke-linecap="butt" stroke-linejoin="miter" stroke-miterlimit="10" stroke-dasharray="" stroke-dashoffset="0" font-family="none" font-weight="none" font-size="none" text-anchor="none" style="mix-blend-mode: normal" data-fill-palette-color="tertiary"></path></g><g transform="matrix(1,0,0,1,70,90)"><svg viewBox="0 0 180 180" height="180" width="180"><g><svg viewBox="0 0 180 180" height="180" width="180"><g><svg viewBox="0 0 180 180" height="180" width="180"><g id="textblocktransform"><svg viewBox="0 0 180 180" height="180" width="180" id="textblock"><g><svg viewBox="0 0 180 180" height="180" width="180"><g transform="matrix(1,0,0,1,36.966991411008934,36.966991411008934)"><svg viewBox="0 0 106.06601717798213 106.06601717798213" height="106.06601717798213" width="106.06601717798213"><g><circle r="53" cx="53.033008588991066" cy="53.033008588991066" fill="#ffffff" data-fill-palette-color="accent"></circle><svg xmlns="http://www.w3.org/2000/svg" xmlns:xlink="http://www.w3.org/1999/xlink" version="1.1" x="15.90990257669732" y="15.90990257669732" viewBox="5.335999965667725 19.916000366210938 89.5979995727539 60.003997802734375" enable-background="new 0 0 100 100" xml:space="preserve" height="74.24621202458749" width="74.24621202458749" class="icon-o-0" data-fill-palette-color="quaternary" id="o-0"><g fill="#e8772e" data-fill-palette-color="quaternary"><polygon fill="none" points="8.42,56.543 8.42,78.92 32.266,78.92 32.266,56.111 67.919,56.111 67.919,78.92 91.784,78.92    91.784,56.543 50.102,28.368  "></polygon><polygon points="50.135,19.916 5.336,49.951 5.34,56.229 50.135,25.859 94.934,56.229 94.934,49.94  " fill="#e8772e" data-fill-palette-color="quaternary"></polygon><path d="M7.64 55.863l-0.22 0.148V79.92h25.846V57.111h33.653V79.92h25.865V56.012L50.102 27.161 7.64 55.863zM91.784 78.92H67.919V56.111H32.266V78.92H8.42V56.543l41.682-28.175 41.682 28.175V78.92z" fill="#e8772e" data-fill-palette-color="quaternary"></path><rect x="34.395" y="58.143" width="31.396" height="2.053" fill="#e8772e" data-fill-palette-color="quaternary"></rect><rect x="34.395" y="61.343" width="31.396" height="2.054" fill="#e8772e" data-fill-palette-color="quaternary"></rect><rect x="34.395" y="64.543" width="31.396" height="2.055" fill="#e8772e" data-fill-palette-color="quaternary"></rect><rect x="34.395" y="67.823" width="31.396" height="2.054" fill="#e8772e" data-fill-palette-color="quaternary"></rect><rect x="34.395" y="71.023" width="31.396" height="2.054" fill="#e8772e" data-fill-palette-color="quaternary"></rect><rect x="34.395" y="74.225" width="31.396" height="2.055" fill="#e8772e" data-fill-palette-color="quaternary"></rect><rect x="34.395" y="77.424" width="31.396" height="2.055" fill="#e8772e" data-fill-palette-color="quaternary"></rect></g></svg></g></svg></g><path d="M7.8 124.917v0c-0.597-1.598-0.761-3.117-0.491-4.558 0.266-1.432 0.927-2.717 1.983-3.855 1.056-1.139 2.504-2.052 4.344-2.74v0c1.81-0.676 3.497-0.92 5.063-0.733 1.562 0.196 2.932 0.782 4.112 1.759 1.182 0.983 2.075 2.283 2.68 3.9v0c0.662 1.772 0.868 3.329 0.618 4.67-0.244 1.338-0.931 2.591-2.062 3.757v0l-2.167-2.103c0.822-0.683 1.33-1.486 1.523-2.408 0.194-0.923 0.091-1.919-0.308-2.989v0c-0.4-1.07-0.997-1.91-1.792-2.52-0.797-0.616-1.758-0.969-2.884-1.059-1.125-0.09-2.359 0.116-3.702 0.618v0c-1.356 0.507-2.438 1.138-3.247 1.893-0.805 0.747-1.31 1.616-1.514 2.607-0.198 0.988-0.078 2.067 0.359 3.236v0c0.237 0.634 0.54 1.198 0.908 1.691 0.372 0.485 0.795 0.876 1.268 1.174 0.471 0.292 0.996 0.464 1.575 0.517 0.577 0.047 1.202-0.056 1.874-0.307v0l0.485-0.181-1.851-4.953 2.248-0.84 2.767 7.407-8.778 3.279-0.77-2.061 3.374-1.441-0.07 0.61c-1.235-0.006-2.334-0.375-3.294-1.107-0.959-0.726-1.709-1.814-2.251-3.263zM51.154 149.747v0c1.449 1.009 2.483 2.191 3.102 3.545 0.628 1.352 0.827 2.802 0.599 4.349-0.225 1.542-0.895 3.114-2.011 4.716v0c-1.112 1.596-2.352 2.767-3.722 3.512-1.373 0.751-2.802 1.066-4.287 0.945-1.484-0.111-2.95-0.672-4.399-1.681v0c-1.433-0.998-2.461-2.176-3.085-3.533-0.628-1.352-0.827-2.802-0.599-4.349 0.225-1.542 0.893-3.112 2.005-4.708v0c1.116-1.601 2.358-2.775 3.727-3.52 1.373-0.751 2.802-1.066 4.288-0.946 1.489 0.115 2.95 0.672 4.382 1.67zM49.686 151.855v0c-0.937-0.653-1.892-0.995-2.866-1.025-0.974-0.031-1.933 0.243-2.879 0.822-0.936 0.578-1.82 1.463-2.651 2.656v0c-0.816 1.171-1.336 2.301-1.561 3.39-0.219 1.093-0.146 2.091 0.22 2.994 0.366 0.903 1.018 1.68 1.955 2.333v0c0.948 0.66 1.909 1.006 2.882 1.037 0.979 0.035 1.941-0.242 2.885-0.831 0.944-0.588 1.824-1.468 2.64-2.639v0c0.831-1.193 1.355-2.329 1.572-3.407 0.221-1.084 0.146-2.079-0.226-2.985-0.366-0.903-1.024-1.684-1.971-2.345zM86.21 161.53l-0.443 15.647 10.034 0.285-0.072 2.538-12.981-0.368 0.516-18.186zM141.423 162.9l-11.691 6.875-9.222-15.684 11.357-6.677 1.287 2.189-8.816 5.183 2.655 4.516 6.893-4.053 1.257 2.137-6.893 4.053 2.736 4.653 9.15-5.381zM154.592 114.739l1.829-3.894 16.468 7.734-1.16 2.469-9.527-4.474-4.45-2.331-0.013 0.027 11.717 11.619-1.045 2.226-16.424-1.596-0.013 0.027 4.636 1.936 9.528 4.474-1.16 2.469-16.468-7.733 1.862-3.966 11.09 1.148 4.458 0.697 0.022-0.046-3.367-3.022z" fill="#ffffff" data-fill-palette-color="primary"></path><path d="M21.067 64.155V64.155C20.481 65.729 19.625 66.966 18.497 67.864 17.378 68.758 16.058 69.29 14.535 69.461 13.013 69.631 11.343 69.378 9.526 68.702V68.702C7.747 68.041 6.335 67.133 5.29 65.979 4.252 64.828 3.611 63.506 3.366 62.013 3.119 60.525 3.293 58.982 3.887 57.383V57.383C4.538 55.634 5.384 54.341 6.425 53.503 7.472 52.667 8.795 52.178 10.392 52.036V52.036L10.649 55C9.596 54.976 8.698 55.248 7.956 55.815 7.214 56.382 6.647 57.191 6.256 58.243V58.243C5.865 59.294 5.768 60.306 5.966 61.279 6.172 62.249 6.662 63.129 7.438 63.92 8.213 64.711 9.263 65.353 10.589 65.846V65.846C11.926 66.344 13.141 66.573 14.233 66.533 15.316 66.496 16.25 66.174 17.035 65.567 17.821 64.96 18.428 64.08 18.856 62.929V62.929C19.09 62.301 19.227 61.683 19.269 61.075 19.315 60.476 19.255 59.915 19.088 59.392 18.929 58.866 18.65 58.397 18.251 57.987 17.849 57.582 17.318 57.257 16.658 57.012V57.012L16.173 56.831 14.357 61.713 12.145 60.89 14.86 53.591 23.512 56.809 22.755 58.844 19.312 57.733 19.761 57.326C20.674 58.127 21.255 59.108 21.503 60.269 21.742 61.435 21.597 62.73 21.067 64.155ZM37.935 15.399V15.399C39.356 14.408 40.799 13.854 42.265 13.739 43.726 13.617 45.135 13.925 46.491 14.663 47.839 15.399 49.061 16.553 50.159 18.127V18.127C51.257 19.7 51.918 21.246 52.144 22.764 52.368 24.292 52.171 25.721 51.552 27.051 50.938 28.386 49.92 29.549 48.499 30.541V30.541C47.083 31.528 45.646 32.078 44.186 32.19 42.724 32.311 41.315 32.003 39.959 31.266 38.606 30.534 37.381 29.381 36.283 27.808V27.808C35.186 26.234 34.527 24.686 34.306 23.164 34.083 21.637 34.28 20.208 34.898 18.878 35.507 17.547 36.519 16.387 37.935 15.399ZM39.377 17.466V17.466C38.451 18.111 37.809 18.879 37.45 19.769 37.095 20.664 37.023 21.645 37.233 22.713 37.449 23.776 37.966 24.894 38.782 26.064V26.064C39.592 27.224 40.46 28.091 41.387 28.666 42.32 29.238 43.268 29.512 44.231 29.487 45.19 29.458 46.132 29.12 47.057 28.475V28.475C47.988 27.825 48.636 27.053 49 26.16 49.355 25.265 49.425 24.281 49.211 23.208 48.991 22.139 48.477 21.024 47.668 19.865V19.865C46.851 18.694 45.981 17.824 45.057 17.254 44.128 16.688 43.182 16.417 42.22 16.441 41.255 16.475 40.308 16.816 39.377 17.466ZM85.629 0L86.059 15.419 95.944 15.143 96.013 17.642 83.222 17.999 82.722 0.081ZM134.482 32.867L122.975 26.072 132.089 10.637 143.27 17.24 141.999 19.392 133.322 14.268 130.699 18.71 137.481 22.715 136.236 24.824 129.453 20.819 126.749 25.398 135.753 30.715ZM174.954 59.813L176.743 63.649 160.498 71.225 159.361 68.788 168.765 64.402 173.334 62.513 173.322 62.486 157.135 64.014 156.112 61.821 167.686 50.402 167.674 50.375 163.29 52.661 153.886 57.046 152.749 54.61 168.994 47.034 170.821 50.951 162.945 58.612 159.608 61.542 159.633 61.596 164.035 60.95Z" fill="#ffffff" data-fill-palette-color="primary"></path><path d="M6.263 91.984c0-1.151 0.933-2.085 2.085-2.085 1.151 0 2.085 0.933 2.085 2.085 0 1.151-0.933 2.085-2.085 2.084-1.151 0-2.085-0.933-2.085-2.084zM167.588 91.984c0-1.151 0.933-2.085 2.085-2.085 1.151 0 2.085 0.933 2.085 2.085 0 1.151-0.933 2.085-2.085 2.084-1.151 0-2.085-0.933-2.085-2.084z" fill="#ffffff" data-fill-palette-color="primary"></path></svg></g></svg></g></svg></g></svg></g></svg></g></svg></g><defs></defs></svg><rect width="320" height="360" fill="none" stroke="none" visibility="hidden"></rect></g></svg></g></svg>